<?xml version="1.0" encoding="UTF-8" standalone="no"?>
<!-- Created with Inkscape (http://www.inkscape.org/) -->

<svg
   xmlns:osb="http://www.openswatchbook.org/uri/2009/osb"
   xmlns:dc="http://purl.org/dc/elements/1.1/"
   xmlns:cc="http://creativecommons.org/ns#"
   xmlns:rdf="http://www.w3.org/1999/02/22-rdf-syntax-ns#"
   xmlns:svg="http://www.w3.org/2000/svg"
   xmlns="http://www.w3.org/2000/svg"
   xmlns:xlink="http://www.w3.org/1999/xlink"
   xmlns:sodipodi="http://sodipodi.sourceforge.net/DTD/sodipodi-0.dtd"
   xmlns:inkscape="http://www.inkscape.org/namespaces/inkscape"
   id="svg5308"
   version="1.1"
   viewBox="0 0 210 297"
   height="297mm"
   width="210mm"
   inkscape:version="0.92.3 (2405546, 2018-03-11)"
   sodipodi:docname="LogoJOB2.svg">
  <sodipodi:namedview
     showguides="true"
     inkscape:snap-text-baseline="false"
     inkscape:snap-smooth-nodes="true"
     inkscape:window-maximized="1"
     inkscape:window-y="-8"
     inkscape:window-x="-8"
     inkscape:window-height="1017"
     inkscape:window-width="1920"
     showborder="false"
     showgrid="false"
     inkscape:current-layer="layer1"
     inkscape:document-units="mm"
     inkscape:cy="1194.9152"
     inkscape:cx="-602.85247"
     inkscape:zoom="5.6"
     inkscape:pageshadow="2"
     inkscape:pageopacity="0.0"
     borderopacity="1.0"
     bordercolor="#666666"
     pagecolor="#ffffff"
     id="base"
     inkscape:snap-to-guides="false" />
  <defs
     id="defs5302">
    <linearGradient
       inkscape:collect="always"
       id="linearGradient10460">
      <stop
         style="stop-color:#000000;stop-opacity:1;"
         offset="0"
         id="stop10456" />
      <stop
         style="stop-color:#000000;stop-opacity:0;"
         offset="1"
         id="stop10458" />
    </linearGradient>
    <linearGradient
       id="linearGradient10388"
       osb:paint="solid">
      <stop
         style="stop-color:#858585;stop-opacity:1;"
         offset="0"
         id="stop10386" />
    </linearGradient>
    <linearGradient
       inkscape:collect="always"
       xlink:href="#linearGradient10460"
       id="linearGradient10462"
       x1="-163.03441"
       y1="-10.627235"
       x2="-126.48531"
       y2="-10.293148"
       gradientUnits="userSpaceOnUse"
       gradientTransform="translate(-2.74541,-21.147974)" />
    <filter
       inkscape:collect="always"
       style="color-interpolation-filters:sRGB"
       id="filter16427"
       x="-0.048241909"
       width="1.0964838"
       y="-0.41334553"
       height="1.8266911">
      <feGaussianBlur
         inkscape:collect="always"
         stdDeviation="0.71607596"
         id="feGaussianBlur16429" />
    </filter>
  </defs>
  <metadata
     id="metadata5305">
    <rdf:RDF>
      <cc:Work
         rdf:about="">
        <dc:format>image/svg+xml</dc:format>
        <dc:type
           rdf:resource="http://purl.org/dc/dcmitype/StillImage" />
        <dc:title></dc:title>
      </cc:Work>
    </rdf:RDF>
  </metadata>
  <g
     id="layer1"
     inkscape:groupmode="layer"
     inkscape:label="Capa 1">
    <path
       inkscape:connector-curvature="0"
       id="path10488"
       d="m -158.13783,-32.273047 c -1.00386,0 -1.88336,0.165364 -2.63809,0.496094 -0.75472,0.330729 -1.3555,0.804774 -1.80247,1.422135 -0.43965,0.617361 -0.70324,1.300868 -0.79117,2.050521 -0.0806,0.742303 -0.12092,2.010098 -0.12092,3.803385 v 3.05356 c 0,1.837386 0.0438,3.123726 0.13178,3.858679 0.0879,0.734954 0.36261,1.414442 0.82424,2.039152 0.46162,0.624711 1.06997,1.095254 1.82469,1.411283 0.76205,0.30868 1.61938,0.463022 2.57194,0.463022 1.00385,0 1.88284,-0.165366 2.63756,-0.496095 0.75472,-0.330729 1.35198,-0.804773 1.79162,-1.422135 0.44698,-0.61736 0.71109,-1.297365 0.79169,-2.039668 0.0879,-0.749653 0.13177,-2.02095 0.13177,-3.814238 v -3.05356 c 0,-1.837384 -0.0438,-3.123725 -0.13177,-3.858679 -0.0879,-0.734954 -0.36262,-1.414958 -0.82424,-2.039669 -0.46163,-0.624711 -1.0735,-1.091234 -1.83555,-1.399914 -0.75472,-0.31603 -1.60852,-0.473873 -2.56108,-0.473873 z m -11.66131,0.374654 v 12.556856 c 0,0.676158 -0.0151,1.131657 -0.0444,1.366841 -0.0293,0.235186 -0.13918,0.433623 -0.32969,0.595313 -0.19052,0.16169 -0.45059,0.242363 -0.78032,0.242363 -0.12457,0 -0.32617,-0.01103 -0.60461,-0.03307 v 3.120221 h 2.31924 c 1.02583,0 1.79142,-0.07717 2.29701,-0.23151 0.51292,-0.161689 0.91613,-0.448321 1.20923,-0.859895 0.30046,-0.411574 0.46879,-0.871092 0.5054,-1.37821 0.0366,-0.514468 0.0553,-1.664498 0.0553,-3.450436 v -11.928473 z m 18.75028,0 v 17.848521 h 5.35316 c 1.86117,0 3.09196,-0.10674 3.6928,-0.319876 0.60085,-0.213136 1.03682,-0.610011 1.30793,-1.190625 0.27844,-0.580613 0.41754,-1.473582 0.41754,-2.678906 v -1.653646 c 0,-1.161227 -0.19052,-2.021122 -0.57154,-2.579687 -0.38102,-0.565914 -1.10629,-0.970311 -2.17609,-1.212846 0.95989,-0.220487 1.60099,-0.536172 1.9234,-0.947746 0.32973,-0.411574 0.49454,-1.139178 0.49454,-2.182812 0,-1.543403 -0.23083,-2.660877 -0.69247,-3.351733 -0.46162,-0.698206 -1.06997,-1.161227 -1.82469,-1.389063 -0.74739,-0.227836 -1.85017,-0.341581 -3.30833,-0.341581 z m -7.06727,2.645833 c 0.28576,0 0.47276,0.117765 0.56069,0.35295 0.0952,0.227836 0.14314,0.757002 0.14314,1.5875 v 8.202083 c 0,1.050984 -0.0444,1.715945 -0.13229,1.995227 -0.0879,0.279283 -0.28901,0.419096 -0.6041,0.419096 -0.30775,0 -0.50583,-0.121267 -0.59376,-0.363802 -0.0806,-0.242535 -0.12092,-0.881944 -0.12092,-1.918229 v -8.334375 c 0,-0.918692 0.0625,-1.469907 0.18707,-1.653646 0.13188,-0.191088 0.31836,-0.286804 0.56017,-0.286804 z m 11.69489,0.407727 c 0.47628,0.0074 0.79482,0.04042 0.95602,0.09922 0.16853,0.0588 0.30411,0.202113 0.40669,0.429948 0.10259,0.220486 0.154,0.610356 0.154,1.168921 0,1.058334 -0.0625,1.701246 -0.18707,1.929081 -0.12456,0.220487 -0.41387,0.330729 -0.86817,0.330729 -0.10992,0 -0.26363,0.0035 -0.46147,0.01085 z m 0,6.746875 c 0.68878,0.02205 1.11365,0.114263 1.27486,0.275952 0.1612,0.16169 0.24185,0.624711 0.24185,1.389062 v 1.664498 c 0,0.720255 -0.0917,1.172251 -0.27492,1.35599 -0.17585,0.183741 -0.58965,0.286462 -1.24179,0.308508 z"
       style="font-style:normal;font-variant:normal;font-weight:normal;font-stretch:normal;font-size:22.57777786px;line-height:1.25;font-family:Impact;-inkscape-font-specification:Impact;letter-spacing:0px;word-spacing:0px;fill:#4d4d4d;fill-opacity:1;stroke:none;stroke-width:0.2;stroke-miterlimit:4;stroke-dasharray:none" />
    <path
       style="fill:#4d4d4d;fill-opacity:0.98469388;stroke:#0a0100;stroke-width:0.2;stroke-miterlimit:4;stroke-dasharray:none;stroke-dashoffset:0;stroke-opacity:1"
       d="m -157.70011,-32.49164 c -0.89477,0.0013 -1.82182,0.129569 -2.63808,0.496094 -1.68981,0.758776 -4.39611,3.399275 -4.39611,3.399275 v -3.520715 h -4.62711 l -5.41827,4.189408 v 12.556857 l -0.0269,0.832508 -1.7322,1.338936 v 3.120223 h 2.31924 l 2.29702,-0.23151 1.20923,-0.859896 2.56263,-1.981275 0.63562,1.573031 1.82469,1.411283 2.57194,0.4630207 2.63757,-0.4960937 4.4514,-3.44165 v 3.56309 h 5.35316 l 3.6928,-0.319877 c 0,0 3.66969,-2.721573 5.41827,-4.189408 0.45156,-0.379056 1.02867,-0.671397 1.30794,-1.190625 0.42809,-0.795929 0.34774,-1.777855 0.41754,-2.678906 0.0426,-0.549569 0.06,-1.105703 0,-1.653646 -0.0958,-0.875519 -0.0454,-1.873341 -0.57154,-2.579688 -0.40369,-0.54199 -1.77095,-0.98702 -1.77095,-0.98702 0,0 1.17427,-0.634285 1.51825,-1.173571 0.40119,-0.62899 0.48744,-1.436802 0.49455,-2.182814 0.0109,-1.140787 -0.0846,-2.386323 -0.69247,-3.351733 -0.4073,-0.64687 -1.11389,-1.107815 -1.82469,-1.389063 -1.03087,-0.407896 -2.20116,-0.284575 -3.30833,-0.341581 -1.53671,-0.07912 -4.61625,0 -4.61625,0 l -2.51303,1.943034 c 0,0 -0.0825,-0.317011 -0.17932,-0.443901 -0.46665,-0.61184 -1.13207,-1.088074 -1.83554,-1.399914 -0.79369,-0.351836 -1.69288,-0.47514 -2.56106,-0.473873 z m -5.23999,4.751648 2.3828,0.4408 0.28422,-0.312126 -2.75538,2.13062 z m 12.32897,0.424264 2.5063,0.258899 0.10594,0.08061 -2.61224,1.490866 z m 4.69067,2.85874 0.33279,1.611788 -0.1328,0.585494 -0.26304,-0.05684 -4.62762,3.578076 -0.52917,-1.774051 1.06815,-0.205156 z m -24.23212,7.181474 v 1.276408 l -0.0279,1.730644 h -0.93999 v -2.258777 l 0.8356,-0.645956 z m 6.30866,0.181901 -1.13791,0.88005 v -5.17e-4 z m 18.33842,0.05323 0.24753,1.118278 v 1.653646 h -3.83284 z m -12.28349,0.234094 -0.0997,2.878377 -2.38331,-0.428914 -0.3421,-0.264583 z"
       id="path15145"
       inkscape:connector-curvature="0"
       sodipodi:nodetypes="ssccccccccccccccccccccssssscsssssccsssccccccccccccccccccccccccccccccccccccccc" />
    <path
       style="opacity:1;fill:#161616;fill-opacity:0.78222221;stroke:#0a0100;stroke-width:0.2;stroke-linecap:square;stroke-linejoin:round;stroke-miterlimit:4;stroke-dasharray:none;stroke-dashoffset:0;stroke-opacity:0.85714285;paint-order:stroke markers fill;filter:url(#filter16427)"
       d="m -170.11639,-11.867053 29.45298,-0.146466 -5.29167,4.1577374 -30.33259,-0.5669642 z"
       id="rect16124"
       inkscape:connector-curvature="0"
       sodipodi:nodetypes="ccccc" />
    <path
       style="font-style:normal;font-variant:normal;font-weight:normal;font-stretch:normal;font-size:22.57777786px;line-height:1.25;font-family:Impact;-inkscape-font-specification:Impact;letter-spacing:0px;word-spacing:0px;fill:#800000;fill-opacity:1;stroke:#0b0000;stroke-width:0.2;stroke-miterlimit:4;stroke-dasharray:none;stroke-opacity:1"
       d="m -163.02694,-28.149782 c -1.00386,0 -1.88336,0.165364 -2.63809,0.496094 -0.75472,0.330729 -1.3555,0.804773 -1.80247,1.422134 -0.43965,0.617361 -0.70324,1.300868 -0.79117,2.050521 -0.0806,0.742303 -0.12092,2.010098 -0.12092,3.803385 v 3.05356 c 0,1.837386 0.0438,3.123726 0.13178,3.858679 0.0879,0.734954 0.36261,1.414442 0.82424,2.039152 0.46162,0.624711 1.06997,1.095254 1.82469,1.411283 0.76205,0.3086797 1.61938,0.4630217 2.57194,0.4630217 1.00385,0 1.88284,-0.165366 2.63756,-0.4960947 0.75472,-0.330729 1.35198,-0.804773 1.79162,-1.422135 0.44698,-0.61736 0.71109,-1.297365 0.79169,-2.039668 0.0879,-0.749653 0.13177,-2.02095 0.13177,-3.814238 v -3.05356 c 0,-1.837384 -0.0438,-3.123725 -0.13177,-3.858679 -0.0879,-0.734954 -0.36262,-1.414958 -0.82424,-2.039669 -0.46163,-0.624711 -1.0735,-1.091233 -1.83555,-1.399913 -0.75472,-0.31603 -1.60852,-0.473873 -2.56108,-0.473873 z m -11.66131,0.374654 v 12.556855 c 0,0.676158 -0.0151,1.131657 -0.0444,1.366841 -0.0293,0.235186 -0.13918,0.433623 -0.32969,0.595313 -0.19052,0.16169 -0.45059,0.242363 -0.78032,0.242363 -0.12457,0 -0.32617,-0.01103 -0.60461,-0.03307 v 3.1202207 h 2.31924 c 1.02583,0 1.79142,-0.07717 2.29701,-0.2315097 0.51292,-0.161689 0.91613,-0.448321 1.20923,-0.859895 0.30046,-0.411574 0.46879,-0.871092 0.5054,-1.37821 0.0366,-0.514468 0.0553,-1.664498 0.0553,-3.450436 v -11.928472 z m 18.75028,0 v 17.8485197 h 5.35316 c 1.86117,0 3.09196,-0.1067397 3.6928,-0.3198757 0.60085,-0.213136 1.03682,-0.610011 1.30793,-1.190625 0.27844,-0.580613 0.41754,-1.473582 0.41754,-2.678906 v -1.653646 c 0,-1.161227 -0.19052,-2.021122 -0.57154,-2.579687 -0.38102,-0.565914 -1.10629,-0.970311 -2.17609,-1.212846 0.95989,-0.220487 1.60099,-0.536172 1.9234,-0.947746 0.32973,-0.411574 0.49454,-1.139178 0.49454,-2.182812 0,-1.543403 -0.23083,-2.660877 -0.69247,-3.351733 -0.46162,-0.698206 -1.06997,-1.161226 -1.82469,-1.389062 -0.74739,-0.227836 -1.85017,-0.341581 -3.30833,-0.341581 z m -7.06727,2.645832 c 0.28576,0 0.47276,0.117765 0.56069,0.35295 0.0952,0.227836 0.14314,0.757002 0.14314,1.5875 v 8.202083 c 0,1.050984 -0.0444,1.715945 -0.13229,1.995227 -0.0879,0.279283 -0.28901,0.419096 -0.6041,0.419096 -0.30775,0 -0.50583,-0.121267 -0.59376,-0.363802 -0.0806,-0.242535 -0.12092,-0.881944 -0.12092,-1.918229 v -8.334375 c 0,-0.918692 0.0625,-1.469907 0.18707,-1.653646 0.13188,-0.191088 0.31836,-0.286804 0.56017,-0.286804 z m 11.69489,0.407727 c 0.47628,0.0074 0.79482,0.04042 0.95602,0.09922 0.16853,0.0588 0.30411,0.202113 0.40669,0.429948 0.10259,0.220486 0.154,0.610356 0.154,1.168921 0,1.058334 -0.0625,1.701246 -0.18707,1.929081 -0.12456,0.220487 -0.41387,0.330729 -0.86817,0.330729 -0.10992,0 -0.26363,0.0035 -0.46147,0.01085 z m 0,6.746875 c 0.68878,0.02205 1.11365,0.114263 1.27486,0.275952 0.1612,0.16169 0.24185,0.624711 0.24185,1.389062 v 1.664498 c 0,0.720255 -0.0917,1.172251 -0.27492,1.35599 -0.17585,0.183741 -0.58965,0.286462 -1.24179,0.308508 z"
       id="path5885"
       inkscape:connector-curvature="0" />
  </g>
</svg>
